<svg xmlns="http://www.w3.org/2000/svg"  viewBox="0 0 100 100" width="500px" height="500px" baseProfile="basic"><path d="M19.5,90c-5.2382812,0-9.5-4.2617188-9.5-9.5v-57c0-5.2382812,4.2617188-9.5,9.5-9.5h65c5.2382812,0,9.5,4.2617188,9.5,9.5 v57c0,5.2382812-4.2617188,9.5-9.5,9.5H19.5z" opacity=".35"/><path fill="#F2F2F2" d="M17.5,88C12.2617188,88,8,83.7382812,8,78.5v-57c0-5.2382812,4.2617188-9.5,9.5-9.5h65 c5.2382812,0,9.5,4.2617188,9.5,9.5v57c0,5.2382812-4.2617188,9.5-9.5,9.5H17.5z"/><path fill="#D9EEFF" d="M85.5,30.0849991V78.5c0,1.6569977-1.3430023,3-3,3h-65c-1.6569996,0-3-1.3430023-3-3V29.7229996 L85.5,30.0849991z"/><path fill="#9AA2E6" d="M82.5,18.5h-65c-1.6569996,0-3,1.3430004-3,3V32h71V21.5C85.5,19.8430004,84.1569977,18.5,82.5,18.5z"/><path fill="#40396E" d="M82.5,83h-65c-2.4814453,0-4.5-2.0185547-4.5-4.5v-57c0-2.4814453,2.0185547-4.5,4.5-4.5h65 c2.4814453,0,4.5,2.0185547,4.5,4.5v57C87,80.9814453,84.9814453,83,82.5,83z M17.5,20c-0.8271484,0-1.5,0.6728516-1.5,1.5v57 c0,0.8271484,0.6728516,1.5,1.5,1.5h65c0.8271484,0,1.5-0.6728516,1.5-1.5v-57c0-0.8271484-0.6728516-1.5-1.5-1.5H17.5z"/><path fill="#D9EEFF" d="M28.9759769,24h0.0000038c1.1045685,0,1.9999981,0.8954296,1.9999981,1.9999981v0.0000038 C30.9759789,27.1045704,30.0805492,28,28.9759808,28h-0.0000038c-1.1045685,0-1.9999981-0.8954296-1.9999981-1.9999981 v-0.0000038C26.9759789,24.8954296,27.8714085,24,28.9759769,24z"/><path fill="#FF7575" d="M21.9759769,24h0.0000038c1.1045685,0,1.9999981,0.8954296,1.9999981,1.9999981v0.0000038 C23.9759789,27.1045704,23.0805492,28,21.9759808,28h-0.0000038c-1.1045685,0-1.9999981-0.8954296-1.9999981-1.9999981 v-0.0000038C19.9759789,24.8954296,20.8714085,24,21.9759769,24z"/><path fill="#F2F2F2" d="M78.024025,28H36.0240211c-1.1045685,0-2-0.8954296-2-1.9999981v-0.0000038 c0-1.1045685,0.8954315-1.9999981,2-1.9999981H78.024025c1.1045685,0,2,0.8954296,2,1.9999981v0.0000038 C80.024025,27.1045704,79.1285934,28,78.024025,28z"/><path fill="#70BFFF" d="M48,36H20v11h28V36z"/><path fill="#70BFFF" d="M48,51H20v25h28V51z"/><path fill="#70BFFF" d="M80,36H52v40h28V36z"/></svg>