<svg xmlns="http://www.w3.org/2000/svg"  viewBox="0 0 100 100" width="500px" height="500px"><path d="M54.5,97.702c-1.395,0-2.725-0.437-3.848-1.262L47,93.766l-3.659,2.68c-1.12,0.821-2.449,1.257-3.841,1.257 c-1.015,0-2.029-0.242-2.935-0.7C34.364,95.886,33,93.664,33,91.202V90h-2.936C22.86,90,17,84.14,17,76.937V19.5 C17,12.607,22.607,7,29.5,7h51c3.584,0,6.5,2.916,6.5,6.5v70c0,3.584-2.916,6.5-6.5,6.5H61v1.202c0,2.462-1.364,4.684-3.56,5.797 C56.532,97.459,55.516,97.702,54.5,97.702z" opacity=".35"/><path fill="#f2f2f2" d="M52.5,95.702c-1.395,0-2.725-0.437-3.848-1.262L45,91.766l-3.659,2.68 c-1.12,0.821-2.449,1.257-3.841,1.257c-1.015,0-2.029-0.242-2.935-0.7C32.364,93.886,31,91.664,31,89.202V88h-2.936 C20.86,88,15,82.14,15,74.937V17.5C15,10.607,20.607,5,27.5,5h51c3.584,0,6.5,2.916,6.5,6.5v70c0,3.584-2.916,6.5-6.5,6.5H59 v1.202c0,2.462-1.364,4.684-3.56,5.797C54.532,95.459,53.516,95.702,52.5,95.702z"/><polygon fill="#70bfff" points="79,12 23,12 23,76 79,71"/><path fill="#40396e" d="M29,75h-9V17.617C20,14.515,22.515,12,25.617,12H29V75z" opacity=".35"/><path fill="#d9eeff" d="M28.077,69C25.273,69,23,71.273,23,74.077v0.846C23,77.727,25.273,80,28.077,80H38v3h15v-3h24V69 H28.077z"/><rect width="45.5" height="3" x="32" y="73" fill="#40396e" opacity=".35"/><polygon fill="#f4665c" points="39,76 51,76 51,87.255 45,82.494 39,87.255"/><path fill="#40396e" d="M52.5,90.702c-0.313,0-0.625-0.098-0.886-0.29L45,85.567l-6.614,4.845 c-0.456,0.334-1.061,0.383-1.564,0.128C36.317,90.284,36,89.768,36,89.202V83h-7.936C23.618,83,20,79.383,20,74.937V17.5 c0-4.136,3.364-7.5,7.5-7.5h51c0.829,0,1.5,0.672,1.5,1.5v70c0,0.828-0.671,1.5-1.5,1.5H54v6.202c0,0.565-0.317,1.082-0.822,1.338 C52.964,90.648,52.731,90.702,52.5,90.702z M45,82.208c0.312,0,0.623,0.097,0.886,0.29L51,86.244V81.5c0-0.828,0.671-1.5,1.5-1.5 H77V13H27.5c-2.481,0-4.5,2.019-4.5,4.5v57.437C23,77.729,25.271,80,28.064,80H37.5c0.829,0,1.5,0.672,1.5,1.5v4.744l5.114-3.746 C44.377,82.305,44.688,82.208,45,82.208z"/><circle cx="35.5" cy="21.5" r="2.5" fill="#40396e"/><circle cx="35.5" cy="33.5" r="2.5" fill="#40396e"/><circle cx="35.5" cy="45.5" r="2.5" fill="#40396e"/><circle cx="35.5" cy="57.5" r="2.5" fill="#40396e"/></svg>